<svg xmlns="http://www.w3.org/2000/svg" viewBox="0 0 128 128" width="128" height="128">
  <path fill="#ffffff" d="M44.44,59.11a7.71,7.71,0,0,1-3.34-1.5c-1.15-1-1.82-2-3.28-2s-2.54,1.51-2.54,2.5,1.22,2,2.28,2.5,2.85.5,4.28,1.5a15.94,15.94,0,0,1,3.6,3.5,16.07,16.07,0,0,1,3.5-3.5c1.43-1,3.21-1,4.28-1.5s2.28-1.5,2.28-2.5-1.08-2.5-2.54-2.5-2.13,1-3.28,2A7.71,7.71,0,0,1,44.44,59.11Z" />
  <path fill="#ffffff" d="M47.35,65.18c-.22.26-.45.51-.69.76a14.94,14.94,0,0,1-2.22,1.95,14.94,14.94,0,0,1-2.22-1.95c-.24-.25-.47-.5-.69-.76C32.69,66.53,26,75.06,26,84.5,26,97.48,34.08,106,44.44,106s18.43-8.52,18.43-21.5C62.87,75.06,56.19,66.53,47.35,65.18Z" />
  <path fill="#ffffff" d="M44.44,22A35.48,35.48,0,0,0,26,27.5V65.41a24.29,24.29,0,0,1,7.61-3.06c2.28-5.05,5.66-9.62,10.83-9.62s8.55,4.57,10.83,9.62A24.29,24.29,0,0,1,62.87,65.41V27.5A35.48,35.48,0,0,0,44.44,22Z" />
</svg> 