<svg xmlns="http://www.w3.org/2000/svg" viewBox="0 0 128 128" width="128" height="128">
  <path fill="#13aa52" d="M82.99 34.338c-2.32-10.263-7.54-19.198-15.23-26.795-1.21-1.187-2.453-2.352-3.722-3.484-.784-.697-1.95-.697-2.733 0-1.27 1.133-2.51 2.297-3.722 3.484-7.688 7.597-12.91 16.532-15.23 26.795-2.55 11.29-1.324 23.184 3.61 33.747 4.635 9.913 11.98 18.106 21.42 23.888.266.164.566.25.87.25.305 0 .605-.086.87-.25 9.44-5.782 16.787-13.975 21.42-23.888 4.934-10.563 6.16-22.456 3.61-33.747z" />
  <path fill="#ffffff" d="M65.45 98.156c-.4 0-.8-.094-1.16-.282-9.727-5.066-17.318-12.898-22.064-22.656-4.95-10.19-6.353-21.976-3.95-33.156 2.256-10.5 7.304-19.48 14.916-26.698 1.224-1.156 2.446-2.282 3.7-3.406.776-.692 1.76-1.062 2.766-1.062s1.99.368 2.766 1.062c1.254 1.124 2.476 2.25 3.7 3.406 7.612 7.218 12.66 16.198 14.916 26.698 2.402 11.18.998 22.964-3.95 33.156-4.746 9.758-12.336 17.59-22.064 22.656-.36.188-.76.282-1.16.282zm-6.278-82.258c-.174 0-.316.05-.412.134-1.222 1.096-2.42 2.198-3.62 3.33-7.152 6.784-11.906 15.126-14.008 24.906-2.21 10.29-.896 21.232 3.7 30.654 4.336 8.906 11.166 16.094 19.826 20.842.1.052.208.078.314.078s.214-.026.314-.078c8.66-4.748 15.49-11.936 19.826-20.842 4.596-9.422 5.91-20.364 3.7-30.654-2.102-9.78-6.856-18.122-14.008-24.906-1.2-1.132-2.398-2.234-3.62-3.33-.096-.084-.238-.134-.412-.134z" />
</svg> 